<svg xmlns="http://www.w3.org/2000/svg" viewBox="0 0 160 160" role="img" aria-labelledby="title desc">
  <title id="title">Danphis icon</title>
  <desc id="desc">Danphis protective equipment D icon.</desc>
  <path d="M16 16h78c34 0 61 27 61 64s-27 64-61 64H16V16Z" fill="#ffffff"/>
  <path d="M20 20h58v22H43v96H20V20Z" fill="#0D1F3D"/>
  <path d="M88 20c33 0 59 27 59 60s-26 60-59 60H71v-22h17c21 0 38-17 38-38S109 42 88 42H71V20h17Z" fill="#FF6A00"/>
  <path d="M58 70c2-18 15-31 32-31s30 13 32 31H58Z" fill="#0D1F3D"/>
  <path d="M90 41v29M73 54c8-7 27-7 35 0" stroke="#ffffff" stroke-width="5" stroke-linecap="round"/>
  <path d="M52 76h76" stroke="#0D1F3D" stroke-width="8" stroke-linecap="round"/>
  <path d="M61 86h58c5 0 9 4 9 9v11c0 5-4 9-9 9H61c-5 0-9-4-9-9V95c0-5 4-9 9-9Z" fill="#ffffff" stroke="#FF6A00" stroke-width="7"/>
  <path d="M64 117c8 2 14 8 18 15 2 4 5 6 9 6s7-2 9-6c4-7 10-13 18-15 0 18-13 31-27 31s-27-13-27-31Z" fill="#0D1F3D"/>
  <path d="M73 116c6 5 12 8 18 8s12-3 18-8" fill="none" stroke="#ffffff" stroke-width="4" stroke-linecap="round"/>
</svg>
